<svg id="Capa_1" enable-background="new 0 0 512 512" height="512" viewBox="0 0 512 512" width="512" xmlns="http://www.w3.org/2000/svg"><g><path d="m474.5 197.558-60 60 60 60c16.568 0 30-13.431 30-30v-60c0-16.569-13.431-30-30-30z" fill="#5873a6"/><path d="m444.5 92.558-120 165 120 165h30v-330z" fill="#60b5d6"/><path d="m444.5 422.558h-437v-330h437v30l-30 61.363 30 58.637v30l-30 60 30 60z" fill="#4dd0eb"/><path d="m414.5 122.558-60 60 60 60h30v-120z" fill="#fce06f"/><path d="m377.763 122.558-60 60 60 60h36.737v-120z" fill="#fbf0a8"/><path d="m37.5 122.558h340.263v120h-340.263z" fill="#fff"/><path d="m414.5 272.558-60 60 60 60h30v-120z" fill="#fffbdb"/><path d="m216.742 272.558-60 60 60 60h197.758v-120z" fill="#fff"/><path d="m37.5 272.558h179.242v120h-179.242z" fill="#fbf0a8"/><path d="m123.397 173.5h-17.949c-4.142 0-7.5 3.358-7.5 7.5s3.358 7.5 7.5 7.5h9.582c-1.914 7.951-7.174 15-17.53 15-12.407 0-22.5-10.093-22.5-22.5s10.093-22.5 22.5-22.5c4.51 0 8.858 1.327 12.575 3.838 3.433 2.318 8.094 1.416 10.414-2.016 2.319-3.432 1.416-8.095-2.016-10.414-6.206-4.192-13.458-6.409-20.972-6.409-20.679.001-37.501 16.823-37.501 37.501s16.822 37.5 37.5 37.5c19.664 0 33.397-15.42 33.397-37.5 0-4.142-3.357-7.5-7.5-7.5z"/><path d="m188.206 166.593c0-12.734-10.755-23.093-23.976-23.093h-15.952c-.339 0-.67.03-.996.073-3.421.454-6.116 3.206-6.467 6.659-.016.153-.017.309-.024.465-.004.101-.015.2-.015.302l-.01 60c0 4.142 3.356 7.5 7.499 7.501 4.143 0 7.501-3.357 7.501-7.499l.003-16.982 19.306 21.936c1.482 1.685 3.552 2.545 5.633 2.545 1.76 0 3.527-.616 4.952-1.87 3.109-2.736 3.412-7.476.675-10.585l-15.249-17.326c9.89-2.848 17.12-11.687 17.12-22.126zm-23.976 8.094c-1.975 0-5.335.014-8.457.029l.003-16.215h8.455c4.865 0 8.976 3.706 8.976 8.093s-4.111 8.093-8.977 8.093z"/><path d="m287.82 149.194c-.026-.069-.054-.138-.082-.207-1.373-3.334-4.587-5.487-8.193-5.487-3.619.004-6.834 2.165-8.201 5.505-.023.057-.046.113-.067.17l-22.53 59.155c-1.474 3.871.468 8.204 4.339 9.678 3.873 1.475 8.204-.469 9.678-4.339l3.771-9.902h25.845l3.729 9.881c1.134 3.003 3.987 4.854 7.019 4.854.88 0 1.775-.156 2.646-.485 3.875-1.462 5.832-5.79 4.369-9.665zm-15.57 39.573 7.269-19.086 7.203 19.086z"/><path d="m233.757 158.774c4.142 0 7.5-3.358 7.5-7.5s-3.358-7.5-7.5-7.5h-25.051c-4.142 0-7.5 3.358-7.5 7.5v59.452c0 4.142 3.358 7.5 7.5 7.5h25.051c4.142 0 7.5-3.358 7.5-7.5s-3.358-7.5-7.5-7.5h-17.551v-14.726h15.704c4.142 0 7.5-3.358 7.5-7.5s-3.358-7.5-7.5-7.5h-15.704v-14.726z"/><path d="m347.763 143.5h-33.135c-4.142 0-7.5 3.358-7.5 7.5s3.358 7.5 7.5 7.5h9.001v52.5c0 4.142 3.358 7.5 7.5 7.5s7.5-3.358 7.5-7.5v-52.5h9.134c4.142 0 7.5-3.358 7.5-7.5s-3.358-7.5-7.5-7.5z"/><path d="m267.877 293.484c-4.142 0-7.5 3.358-7.5 7.5v47.955c0 1.739-.886 3.312-2.312 4.103-2.692 1.496-5.935-1.544-6.071-1.674-2.938-2.92-7.687-2.904-10.607.034s-2.904 7.687.034 10.607c2.908 2.921 8.506 6.507 15.049 6.507 2.83 0 5.836-.671 8.875-2.358 6.188-3.435 10.032-10.033 10.032-17.218v-47.955c0-4.143-3.357-7.501-7.5-7.501z"/><path d="m413.19 326.376c2.164-3.334 3.422-7.308 3.422-11.57 0-11.748-9.558-21.306-21.306-21.306h-17.429c-4.142 0-7.5 3.358-7.5 7.5v60c0 1.995.795 3.908 2.208 5.315 1.406 1.4 3.309 2.185 5.292 2.185.033 0 16.056-.071 20.473-.071 13.041 0 23.65-10.609 23.65-23.65 0-7.426-3.44-14.064-8.81-18.403zm-27.813-17.876h9.929c3.477 0 6.306 2.829 6.306 6.306s-2.829 6.306-6.306 6.306c-.167 0-.332.005-.496.016h-9.433zm12.973 44.929c-2.388 0-8.159.021-12.973.04v-17.34h12.973c4.77 0 8.65 3.88 8.65 8.65 0 4.769-3.88 8.65-8.65 8.65z"/><path d="m322.877 293.5c-20.678 0-37.5 16.822-37.5 37.5s16.822 37.5 37.5 37.5 37.5-16.822 37.5-37.5-16.822-37.5-37.5-37.5zm0 60c-12.407 0-22.5-10.093-22.5-22.5s10.093-22.5 22.5-22.5 22.5 10.093 22.5 22.5-10.093 22.5-22.5 22.5z"/><path d="m482 189.255v-98.255c0-4.142-3.358-7.5-7.5-7.5h-467c-4.142 0-7.5 3.358-7.5 7.5v330c0 4.142 3.358 7.5 7.5 7.5h467c4.142 0 7.5-3.358 7.5-7.5v-98.255c17.096-3.484 30-18.635 30-36.745v-60c0-18.11-12.904-33.261-30-36.745zm-15 224.245h-452v-315h452zm30-127.5c0 9.778-6.271 18.114-15 21.21v-102.42c8.729 3.096 15 11.432 15 21.21z"/><path d="m37.5 398.5h407c4.142 0 7.5-3.358 7.5-7.5v-120c0-4.142-3.358-7.5-7.5-7.5h-227.758c-4.142 0-7.5 3.358-7.5 7.5v112.5h-164.242v-105h141.742c4.142 0 7.5-3.358 7.5-7.5s-3.358-7.5-7.5-7.5h-149.242c-4.142 0-7.5 3.358-7.5 7.5v120c0 4.142 3.358 7.5 7.5 7.5zm186.742-120h212.758v105h-212.758z"/><path d="m37.5 248.5h407c4.142 0 7.5-3.358 7.5-7.5v-120c0-4.142-3.358-7.5-7.5-7.5h-407c-4.142 0-7.5 3.358-7.5 7.5v120c0 4.142 3.358 7.5 7.5 7.5zm399.5-15h-51.737v-105h51.737zm-392-105h325.263v105h-325.263z"/></g></svg>