<svg height="512pt" viewBox="0 -69 512 512" width="512pt" xmlns="http://www.w3.org/2000/svg"><path d="m256 7.5c-84.921875 0-159.730469 43.261719-203.609375 108.945312-13.199219 19.757813-4.917969 46.695313 16.933594 56.027344l51.332031 21.925782c20.484375 8.746093 44.042969 3.332031 59.210938-12.980469 18.980468-20.410157 46.0625-33.179688 76.132812-33.179688s57.15625 12.769531 76.136719 33.179688c15.167969 16.3125 38.722656 21.726562 59.207031 12.980469l51.335938-21.925782c21.851562-9.332031 30.128906-36.265625 16.929687-56.027344-43.878906-65.683593-118.6875-108.945312-203.609375-108.945312zm0 0" fill="#ffbe73"/><path d="m419.007812 69.707031c15.417969 13.78125 29.078126 29.484375 40.601563 46.738281 13.199219 19.757813 4.917969 46.695313-16.933594 56.027344l-51.332031 21.925782c-20.484375 8.746093-44.042969 3.332031-59.210938-12.980469-3.992187-4.296875-8.347656-8.253907-13.011718-11.824219zm0 0" fill="#f9ee80"/><path d="m52.390625 116.445312c-13.199219 19.757813-4.917969 46.695313 16.933594 56.027344l51.332031 21.925782c20.484375 8.746093 44.039062 3.332031 59.207031-12.980469 18.980469-20.410157 46.066407-33.179688 76.136719-33.179688v-140.738281c-84.921875 0-159.730469 43.261719-203.609375 108.945312zm0 0" fill="#ff8f71"/><path d="m92.992188 69.707031c-15.417969 13.78125-29.078126 29.484375-40.601563 46.738281-13.199219 19.757813-4.917969 46.695313 16.933594 56.027344l51.332031 21.925782c20.484375 8.746093 44.042969 3.332031 59.210938-12.980469 3.992187-4.296875 8.347656-8.253907 13.011718-11.824219zm0 0" fill="#fd5c6f"/><path d="m243.539062 70.503906c-23.195312 68.609375-10.535156 151.835938-10.535156 151.835938h45.996094s12.660156-83.226563-10.539062-151.835938c-4.445313-13.140625-20.476563-13.140625-24.921876 0zm0 0" fill="#6a829a"/><path d="m299.921875 230.394531c0 24.257813-19.664063 43.921875-43.921875 43.921875s-43.921875-19.664062-43.921875-43.921875c0-24.257812 19.664063-43.921875 43.921875-43.921875s43.921875 19.664063 43.921875 43.921875zm0 0" fill="#a7b6c5"/><path d="m163.496094 289c0 43.078125-34.917969 77.996094-77.996094 77.996094s-78-34.917969-78-77.996094 34.921875-78 78-78 77.996094 34.921875 77.996094 78zm0 0" fill="#b18cd9"/><path d="m54.90625 289c0-34.8125 22.828125-64.292969 54.3125-74.328125-7.476562-2.382813-15.453125-3.671875-23.71875-3.671875-43.078125 0-78 34.921875-78 78s34.921875 78 78 78c8.265625 0 16.242188-1.289062 23.71875-3.671875-31.484375-10.039063-54.3125-39.519531-54.3125-74.328125zm0 0" fill="#996acc"/><path d="m504.5 289c0 43.078125-34.921875 77.996094-78 77.996094s-77.996094-34.917969-77.996094-77.996094 34.917969-78 77.996094-78 78 34.921875 78 78zm0 0" fill="#76e7e7"/><path d="m395.910156 289c0-34.8125 22.828125-64.292969 54.3125-74.328125-7.476562-2.382813-15.457031-3.671875-23.722656-3.671875-43.078125 0-77.996094 34.921875-77.996094 78 0 43.074219 34.917969 77.996094 77.996094 77.996094 8.265625 0 16.246094-1.289063 23.722656-3.671875-31.484375-10.035157-54.3125-39.515625-54.3125-74.324219zm0 0" fill="#2eddda"/><path d="m156.550781 133.390625c-5.996093 5.996094-5.996093 15.71875 0 21.71875l24.773438 24.769531c7.195312-7.429687 15.484375-13.785156 24.617187-18.816406l-27.671875-27.671875c-6-5.996094-15.722656-5.996094-21.71875 0zm0 0" fill="#516980"/><path d="m355.449219 133.390625c-5.996094-5.996094-15.71875-5.996094-21.71875 0l-27.671875 27.675781c9.132812 5.027344 17.421875 11.382813 24.617187 18.816406l24.773438-24.773437c5.996093-6 5.996093-15.722656 0-21.71875zm0 0" fill="#516980"/><path d="m125.40625 281.386719v12.453125c0 4.140625 3.355469 7.5 7.5 7.5s7.5-3.359375 7.5-7.5v-12.453125c0-4.140625-3.355469-7.5-7.5-7.5s-7.5 3.359375-7.5 7.5zm0 0"/><path d="m38.09375 273.886719c-4.144531 0-7.5 3.359375-7.5 7.5v12.453125c0 4.140625 3.355469 7.5 7.5 7.5 4.140625 0 7.5-3.359375 7.5-7.5v-12.453125c0-4.140625-3.359375-7.5-7.5-7.5zm0 0"/><path d="m85.5 282.964844c-7.140625 0-13.742188 3.558594-17.660156 9.527344-2.273438 3.460937-1.3125 8.113281 2.148437 10.386718 3.460938 2.273438 8.113281 1.308594 10.386719-2.152344 1.640625-2.496093 4.128906-2.761718 5.125-2.761718.992188 0 3.441406.296875 5.121094 2.761718 3.503906 5.144532 9.117187 2.984376 10.386718 2.152344 3.460938-2.273437 4.425782-6.925781 2.152344-10.386718-3.921875-5.96875-10.523437-9.527344-17.660156-9.527344zm0 0"/><path d="m473.90625 273.886719c-4.140625 0-7.5 3.359375-7.5 7.5v12.453125c0 4.140625 3.359375 7.5 7.5 7.5 4.144531 0 7.5-3.359375 7.5-7.5v-12.453125c0-4.140625-3.355469-7.5-7.5-7.5zm0 0"/><path d="m371.59375 281.386719v12.453125c0 4.140625 3.359375 7.5 7.5 7.5 4.144531 0 7.5-3.359375 7.5-7.5v-12.453125c0-4.140625-3.355469-7.5-7.5-7.5-4.140625 0-7.5 3.359375-7.5 7.5zm0 0"/><path d="m431.625 286.347656c-1.683594 2.464844-4.128906 2.761719-5.125 2.761719-.992188 0-3.484375-.269531-5.121094-2.761719-2.277344-3.464844-6.925781-4.425781-10.386718-2.152344-3.460938 2.273438-4.425782 6.921876-2.152344 10.386719 3.921875 5.964844 10.523437 9.527344 17.660156 9.527344 7.140625 0 13.742188-3.5625 17.660156-9.527344 2.273438-3.464843 1.3125-8.113281-2.148437-10.386719-1.269531-.835937-6.882813-2.992187-10.386719 2.152344zm0 0"/><path d="m394.289062 201.292969 51.332032-21.925781c12.574218-5.367188 22.019531-15.96875 25.917968-29.078126 3.859376-12.964843 1.78125-26.816406-5.695312-38.011718-46.964844-70.304688-125.410156-112.277344-209.84375-112.277344-39.574219 0-77.460938 8.910156-112.605469 26.480469-3.707031 1.851562-5.207031 6.355469-3.355469 10.0625 1.851563 3.703125 6.355469 5.210937 10.0625 3.351562 30.820313-15.40625 63.886719-23.722656 98.398438-24.773437v39.539062c-5.488281 2.292969-9.910156 7.074219-12.066406 13.441406-8.613282 25.484376-12.480469 52.738282-13.816406 77.738282-5.238282 1.644531-10.332032 3.667968-15.242188 6.054687l-23.804688-23.804687c-7.027343-7.027344-17.523437-8.488282-26.019531-4.433594l-53.554687-53.550781c6.269531-5.234375 12.824218-10.171875 19.660156-14.777344 3.4375-2.3125 4.347656-6.976563 2.03125-10.410156-2.316406-3.4375-6.976562-4.34375-10.410156-2.027344-27.46875 18.503906-50.726563 41.851563-69.121094 69.390625-7.476562 11.191406-9.554688 25.046875-5.699219 38.007812 3.902344 13.113282 13.347657 23.714844 25.921875 29.082032l51.332032 21.925781c7.433593 3.175781 15.292968 4.710937 23.113281 4.710937 16.460937 0 32.75-6.808593 44.535156-19.480468 10.25-11.023438 22.808594-19.425782 36.722656-24.648438-.148437 10.542969.105469 20.464844.570313 29.425782-11.046875 9.4375-18.074219 23.457031-18.074219 39.09375 0 28.355468 23.070313 51.421874 51.421875 51.421874 28.355469 0 51.421875-23.066406 51.421875-51.421874 0-15.636719-7.023437-29.65625-18.074219-39.09375.464844-8.945313.71875-18.875.570313-29.433594 13.914062 5.222656 26.46875 13.625 36.726562 24.65625 11.785157 12.671875 28.070313 19.480468 44.535157 19.480468 7.816406-.003906 15.675781-1.539062 23.109374-4.714843zm-270.6875-13.792969-51.332031-21.925781c-8.457031-3.609375-14.808593-10.738281-17.433593-19.5625-2.578126-8.671875-1.199219-17.929688 3.792968-25.398438 9.914063-14.84375 21.335938-28.386719 34.136719-40.523437l54.132813 54.128906c-4.160157 8.527344-2.726563 19.117188 4.351562 26.191406l19.441406 19.441406c-13.035156 11.238282-31.355468 14.367188-47.089844 7.648438zm57.828126-18.117188-19.574219-19.578124c-1.484375-1.484376-3.71875-7.390626 0-11.109376s9.625-1.484374 11.109375 0l20.941406 20.945313c-4.367188 2.9375-8.539062 6.1875-12.476562 9.742187zm271.941406-48.769531c4.992187 7.46875 6.375 16.726563 3.792968 25.398438-2.625 8.820312-8.976562 15.953125-17.433593 19.5625l-51.332031 21.925781c-15.734376 6.722656-34.054688 3.589844-47.085938-7.648438l19.441406-19.441406c7.074219-7.074218 8.511719-17.664062 4.351563-26.191406l54.128906-54.132812c12.699219 12.058593 24.175781 25.609374 34.136719 40.527343zm-160.949219 109.78125c0 20.085938-16.339844 36.421875-36.421875 36.421875s-36.421875-16.335937-36.421875-36.421875c0-20.082031 16.339844-36.421875 36.421875-36.421875s36.421875 16.339844 36.421875 36.421875zm-36.421875-51.421875c-6.597656 0-12.898438 1.261719-18.699219 3.535156-.910156-28.25.476563-71.542968 13.34375-109.601562 1.007813-2.976562 3.007813-4.757812 5.355469-4.757812s4.347656 1.78125 5.355469 4.757812c12.484375 36.921875 14.421875 78.191406 13.355469 109.609375-5.804688-2.277344-12.109376-3.542969-18.710938-3.542969zm19.566406-110.871094c-2.15625-6.367187-6.578125-11.148437-12.066406-13.441406v-39.542968c53.605469 1.683593 104.269531 21.34375 144.515625 54.976562l-53.566406 53.5625c-8.496094-4.054688-18.992188-2.597656-26.019531 4.429688l-23.804688 23.804687c-4.910156-2.382813-10.003906-4.40625-15.246094-6.046875-1.335937-24.984375-5.195312-52.253906-13.8125-77.742188zm42.527344 91.535157 20.941406-20.941407c1.484375-1.484374 6.898438-4.210937 11.109375 0 4.214844 4.210938 1.484375 9.625 0 11.109376l-19.574219 19.578124c-3.9375-3.554687-8.109374-6.808593-12.476562-9.746093zm0 0"/><path d="m85.5 203.5c-47.144531 0-85.5 38.355469-85.5 85.5s38.355469 85.496094 85.5 85.496094 85.496094-38.351563 85.496094-85.496094-38.351563-85.5-85.496094-85.5zm0 155.996094c-38.875 0-70.5-31.625-70.5-70.496094 0-38.875 31.625-70.5 70.5-70.5 38.871094 0 70.496094 31.625 70.496094 70.5 0 38.871094-31.625 70.496094-70.496094 70.496094zm0 0"/><path d="m426.5 203.5c-47.144531 0-85.496094 38.355469-85.496094 85.5s38.351563 85.496094 85.496094 85.496094c16.515625 0 32.546875-4.71875 46.359375-13.644532 3.476563-2.25 4.476563-6.890624 2.226563-10.371093-2.25-3.476563-6.890626-4.476563-10.371094-2.226563-11.378906 7.355469-24.59375 11.242188-38.214844 11.242188-38.871094 0-70.496094-31.625-70.496094-70.496094 0-38.875 31.625-70.5 70.496094-70.5 38.875 0 70.5 31.625 70.5 70.5 0 13.992188-4.089844 27.515625-11.828125 39.097656-2.300781 3.445313-1.371094 8.105469 2.070313 10.40625 3.445312 2.296875 8.105468 1.371094 10.402343-2.074218 9.390625-14.058594 14.355469-30.460938 14.355469-47.429688 0-47.144531-38.355469-85.5-85.5-85.5zm0 0"/></svg>